<?xml version="1.0" encoding="UTF-8" ?>
<!DOCTYPE svg PUBLIC "-//W3C//DTD SVG 1.1//EN" "http://www.w3.org/Graphics/SVG/1.1/DTD/svg11.dtd">
<svg width="932pt" height="938pt" viewBox="0 0 932 938" version="1.1" xmlns="http://www.w3.org/2000/svg">
<path fill="#000000" d=" M 0.00 0.00 L 932.00 0.00 L 932.00 938.00 L 0.00 938.00 L 0.00 0.00 Z" />
<path fill="#ffffff" d=" M 337.12 420.09 C 340.33 419.98 343.54 419.99 346.76 420.20 C 346.74 445.16 346.48 470.13 346.93 495.09 C 346.56 499.98 350.43 504.34 348.43 509.27 C 346.15 509.38 343.88 509.53 341.62 509.79 C 340.88 507.39 339.65 505.21 338.27 503.15 C 335.58 504.94 333.33 507.85 329.94 508.22 C 325.07 508.95 320.05 508.84 315.24 507.84 C 308.36 504.88 303.02 498.78 300.69 491.69 C 298.36 486.81 298.88 481.26 298.61 476.00 C 298.89 471.14 298.31 465.95 300.56 461.45 C 303.06 453.54 309.45 447.03 317.21 444.19 C 323.92 443.08 330.98 443.39 337.11 446.51 C 337.17 437.70 337.15 428.89 337.12 420.09 Z" />
<path fill="#ffffff" d=" M 391.57 422.19 C 395.31 421.01 400.41 420.84 402.65 424.68 C 403.18 426.97 403.27 429.38 402.90 431.71 C 400.68 435.67 395.05 437.69 391.41 434.49 C 388.40 432.95 388.56 429.08 388.88 426.20 C 388.80 424.35 390.46 423.38 391.57 422.19 Z" />
<path fill="#fac32c" d=" M 821.68 426.23 C 827.34 425.57 833.38 427.63 836.45 432.65 C 838.81 440.91 836.50 449.67 838.55 457.95 C 839.12 461.85 837.75 466.86 841.45 469.56 C 843.68 470.96 846.19 471.84 848.71 472.63 C 848.74 474.23 848.77 475.83 848.80 477.44 C 845.82 479.09 842.32 480.40 840.60 483.56 C 838.57 486.26 838.93 489.81 838.74 493.00 C 838.48 499.32 838.99 505.66 838.43 511.97 C 837.21 515.57 837.29 519.76 834.70 522.77 C 831.38 527.64 824.43 526.37 819.43 525.57 C 819.39 523.90 819.38 522.23 819.38 520.57 C 822.45 519.56 825.46 518.37 828.51 517.28 C 829.84 508.33 828.64 499.25 829.51 490.28 C 830.56 487.07 830.89 483.54 832.84 480.71 C 834.29 478.13 836.84 476.49 839.21 474.84 C 833.33 474.30 829.76 468.54 829.26 463.12 C 828.99 455.40 829.40 447.65 829.02 439.93 C 829.09 437.77 827.69 436.04 826.75 434.23 C 824.33 434.05 821.93 433.82 819.54 433.49 C 819.44 431.92 819.37 430.35 819.33 428.79 C 820.12 427.95 820.90 427.09 821.68 426.23 Z" />
<path fill="#fac32c" d=" M 103.59 428.41 C 107.83 426.95 112.43 427.12 116.82 427.67 C 116.77 429.65 116.71 431.63 116.65 433.61 C 114.23 433.85 111.82 434.08 109.40 434.31 C 108.51 436.78 107.10 439.14 107.10 441.84 C 106.74 449.16 107.34 456.51 106.71 463.82 C 105.56 468.73 102.39 473.83 97.11 474.93 C 102.26 476.94 105.79 481.67 106.75 487.05 C 107.50 496.20 106.37 505.45 107.45 514.57 C 108.50 518.77 113.32 519.29 116.83 520.36 C 116.79 522.20 116.74 524.04 116.71 525.88 C 111.58 526.34 104.79 527.52 101.56 522.41 C 97.55 517.85 99.53 511.40 97.88 506.02 C 97.01 498.84 98.24 491.50 96.85 484.36 C 95.66 481.34 92.61 480.15 89.93 478.83 C 87.58 477.76 88.82 474.71 88.38 472.70 C 90.99 471.29 94.16 470.44 95.90 467.88 C 100.11 458.49 97.92 447.87 98.91 437.89 C 99.01 434.23 100.96 430.86 103.59 428.41 Z" />
<path fill="#ffffff" d=" M 166.52 451.57 C 169.31 448.14 173.32 446.15 177.26 444.37 C 182.39 443.35 187.67 443.54 192.83 444.17 C 199.77 446.24 204.92 451.63 209.26 457.16 C 206.85 459.00 204.38 460.74 201.87 462.44 C 198.97 458.85 196.44 454.81 192.40 452.35 C 187.89 451.13 182.99 451.34 178.47 452.39 C 173.82 454.84 170.89 459.53 169.14 464.34 C 168.17 471.83 168.22 479.45 169.00 486.95 C 170.10 492.08 173.50 496.40 177.63 499.52 C 180.96 500.49 184.23 502.41 187.82 501.72 C 193.42 500.40 198.00 496.68 201.63 492.34 C 204.90 491.19 206.48 495.64 208.99 497.03 C 205.01 501.47 200.61 505.99 194.80 507.87 C 188.72 508.96 182.40 509.00 176.35 507.73 C 171.30 505.92 167.34 502.05 164.09 497.90 C 161.56 494.36 160.72 490.04 159.28 486.03 C 158.80 479.74 158.77 473.38 159.31 467.09 C 160.98 461.63 162.56 455.89 166.52 451.57 Z" />
<path fill="#ffffff" d=" M 243.73 444.73 C 248.90 443.00 254.56 443.69 259.91 444.17 C 269.35 446.72 274.96 455.96 276.85 465.02 C 277.69 472.95 277.66 480.99 276.67 488.91 C 274.66 494.80 272.08 501.08 266.78 504.79 C 260.21 510.02 251.02 509.01 243.27 507.71 C 236.52 504.36 231.44 498.05 229.22 490.91 C 227.83 481.40 227.87 471.66 229.14 462.15 C 231.23 454.62 236.41 447.83 243.73 444.73 Z" />
<path fill="#ffffff" d=" M 373.36 444.34 C 382.49 444.13 391.62 444.26 400.75 444.26 C 401.00 465.48 400.74 486.70 400.89 507.93 C 397.66 508.02 394.44 508.01 391.23 507.83 C 391.38 489.22 391.26 470.62 391.28 452.01 C 385.25 451.95 379.22 452.16 373.20 451.81 C 373.28 449.32 373.33 446.83 373.36 444.34 Z" />
<path fill="#ffffff" d=" M 457.73 444.73 C 462.90 443.00 468.56 443.69 473.90 444.17 C 483.35 446.72 488.96 455.96 490.85 465.03 C 491.69 472.96 491.66 481.00 490.66 488.91 C 488.65 494.81 486.08 501.08 480.78 504.79 C 474.21 510.02 465.01 509.01 457.26 507.71 C 450.52 504.35 445.43 498.05 443.22 490.90 C 441.83 481.40 441.87 471.66 443.14 462.14 C 445.23 454.61 450.41 447.83 457.73 444.73 Z" />
<path fill="#ffffff" d=" M 582.78 444.41 C 586.01 443.88 589.28 443.54 592.57 443.58 C 592.84 445.83 593.15 448.08 593.49 450.33 C 596.18 447.98 599.06 445.63 602.35 444.24 C 608.66 443.30 615.80 442.80 621.28 446.68 C 627.01 449.71 630.27 455.67 632.64 461.45 C 632.92 465.06 635.00 468.25 634.79 471.92 C 634.89 475.94 634.99 479.99 634.57 484.00 C 633.78 486.17 633.03 488.36 632.70 490.67 C 630.11 498.29 624.45 505.06 616.78 507.87 C 609.68 509.06 601.75 509.43 595.31 505.72 C 595.18 514.54 595.29 523.36 595.24 532.19 C 592.02 532.22 588.76 532.33 585.63 531.42 C 585.78 515.94 585.65 500.47 585.70 485.00 C 585.64 473.34 585.92 461.66 584.97 450.03 C 584.99 447.91 583.70 446.19 582.78 444.41 Z" />
<path fill="#ffffff" d=" M 661.13 444.23 C 664.23 444.22 667.34 444.21 670.43 444.46 C 670.76 448.47 671.00 452.49 671.59 456.48 C 675.89 450.80 681.12 443.84 688.94 443.78 C 692.05 443.53 695.26 443.60 698.27 444.53 C 700.85 446.79 702.89 449.59 704.44 452.63 C 705.58 456.40 705.44 460.40 705.63 464.30 C 702.78 464.31 699.95 464.30 697.11 464.29 C 697.31 459.93 697.01 455.56 694.54 451.83 C 691.84 451.54 689.04 451.28 686.41 452.12 C 678.60 456.94 674.25 465.99 673.02 474.87 C 672.63 485.87 672.83 496.89 672.85 507.89 C 669.63 508.01 666.40 508.01 663.19 507.86 C 663.28 491.21 663.36 474.55 663.00 457.90 C 663.25 453.18 660.53 448.99 661.13 444.23 Z" />
<path fill="#ffffff" d=" M 741.73 444.73 C 746.90 443.00 752.56 443.69 757.91 444.17 C 763.40 445.92 768.47 449.65 771.02 454.96 C 776.98 464.89 775.53 477.00 774.80 488.04 C 773.02 494.52 770.01 501.33 764.21 505.20 C 757.92 509.90 749.40 508.89 742.09 507.91 C 734.84 505.04 729.55 498.21 727.22 490.91 C 725.83 481.40 725.86 471.66 727.14 462.15 C 729.22 454.62 734.40 447.83 741.73 444.73 Z" />
<path fill="#000000" d=" M 245.60 452.34 C 251.10 451.28 258.05 450.28 262.49 454.53 C 265.33 457.59 266.96 461.57 267.48 465.68 C 269.53 470.54 268.83 475.98 268.78 481.12 C 268.96 483.94 267.29 486.35 267.01 489.10 C 266.02 496.58 258.65 502.76 251.04 501.80 C 245.85 501.18 241.11 497.53 239.22 492.65 C 238.61 489.40 236.67 486.49 236.90 483.09 C 237.01 476.05 235.75 468.58 238.73 461.97 C 239.13 457.74 242.69 455.01 245.60 452.34 Z" />
<path fill="#000000" d=" M 317.73 452.54 C 321.68 451.49 325.89 451.25 329.94 451.85 C 332.84 452.21 334.79 454.63 337.14 456.11 C 337.14 466.78 337.13 477.44 337.15 488.11 C 337.16 490.30 337.13 492.77 335.48 494.44 C 332.56 498.27 328.46 502.28 323.25 501.81 C 317.74 501.08 312.85 497.35 310.52 492.30 C 308.62 489.48 308.89 485.92 307.49 482.89 C 306.94 477.25 306.58 471.34 308.71 465.97 C 309.47 460.36 313.33 455.83 317.73 452.54 Z" />
<path fill="#000000" d=" M 459.60 452.34 C 465.10 451.28 472.05 450.28 476.49 454.53 C 479.33 457.59 480.96 461.56 481.48 465.68 C 483.53 470.54 482.83 475.98 482.78 481.13 C 482.95 483.94 481.29 486.36 481.01 489.10 C 480.02 496.58 472.65 502.76 465.03 501.80 C 459.85 501.18 455.11 497.53 453.22 492.65 C 452.61 489.40 450.67 486.49 450.90 483.09 C 451.01 476.05 449.75 468.58 452.73 461.97 C 453.13 457.74 456.69 455.01 459.60 452.34 Z" />
<path fill="#000000" d=" M 603.37 452.14 C 608.16 451.36 613.90 450.65 617.85 454.11 C 621.60 457.06 623.39 461.76 624.81 466.17 C 625.60 472.95 625.43 479.87 624.62 486.65 C 623.31 489.61 621.85 492.50 620.41 495.40 C 616.69 499.97 610.34 502.88 604.45 501.56 C 601.81 500.46 599.23 499.18 596.89 497.54 C 595.98 495.49 596.29 493.19 596.23 491.02 C 596.36 481.34 596.07 471.65 596.36 461.98 C 596.43 457.57 600.22 454.65 603.37 452.14 Z" />
<path fill="#000000" d=" M 743.61 452.34 C 749.10 451.28 756.05 450.28 760.49 454.53 C 763.33 457.59 764.96 461.56 765.48 465.68 C 767.53 470.54 766.83 475.98 766.78 481.12 C 766.95 483.94 765.29 486.36 765.01 489.11 C 764.02 496.58 756.64 502.77 749.03 501.80 C 743.84 501.18 739.10 497.52 737.22 492.65 C 736.74 489.70 734.93 487.11 734.95 484.07 C 734.74 478.18 734.58 472.24 735.19 466.37 C 736.09 463.86 736.98 461.34 737.58 458.73 C 739.27 456.32 741.36 454.23 743.61 452.34 Z" />
<path fill="#ffffff" d=" M 531.63 492.38 C 535.99 491.13 541.20 491.15 544.51 494.69 C 545.84 498.09 545.94 501.99 544.80 505.46 C 543.23 507.08 541.43 508.46 539.47 509.54 C 533.31 511.44 525.93 505.65 527.12 499.13 C 526.94 496.10 529.81 494.37 531.63 492.38 Z" />
</svg>
